<?xml version="1.0" encoding="utf-8"?>
<!-- Generator: Adobe Illustrator 22.0.1, SVG Export Plug-In . SVG Version: 6.00 Build 0)  -->
<svg version="1.2" baseProfile="tiny" id="Layer_1" xmlns="http://www.w3.org/2000/svg" xmlns:xlink="http://www.w3.org/1999/xlink"
	 x="0px" y="0px" viewBox="0 0 45 45" xml:space="preserve">
<g>

		<ellipse transform="matrix(0.1591 -0.9873 0.9873 0.1591 -3.2934 41.1333)" fill="#959595" cx="22.5" cy="22.5" rx="21.6" ry="21.6"/>
	<g>
		<path fill="#FFFFFF" d="M31.5,27.8c-1-1-2.7-1.1-3.8-0.3l-2.6,1.7c0,0-1.7,0.7-6.1-3.8c-4.4-4.4-3.8-6.1-3.8-6.1v0l1.7-2.6
			c0.9-1.1,0.7-2.8-0.3-3.8l-2.5-2.5c-0.6-0.6-1.4-0.9-2.3-0.8c-0.8,0.1-1.6,0.5-2.1,1.2c0,0,0,0,0,0l-1.2,2
			c-0.2,0.3-4.9,7,5.5,17.5c0,0,0.1,0.1,0.1,0.1c5.5,5.4,9.9,6.7,12.9,6.7c2.8,0,4.4-1.1,4.5-1.2l2.1-1.3c0.7-0.5,1.1-1.3,1.2-2.1
			c0.1-0.8-0.2-1.7-0.8-2.3L31.5,27.8z"/>
		<path fill="#FFFFFF" d="M27.8,22.4c0.1,0.1,0.2,0.1,0.3,0.1c0.1,0,0.2,0,0.3-0.1c1.7-1.7,1.7-4.5,0-6.2c-1.7-1.7-4.6-1.7-6.2,0
			c-0.2,0.2-0.2,0.5,0,0.7c0.2,0.2,0.5,0.2,0.7,0c1.3-1.3,3.6-1.3,4.9,0c1.3,1.3,1.3,3.5,0,4.9C27.7,21.9,27.7,22.2,27.8,22.4z"/>
		<path fill="#FFFFFF" d="M29.9,24.3c0.1,0,0.2,0,0.3-0.1c2.7-2.7,2.7-7.1,0-9.7c-2.7-2.7-7.1-2.7-9.7,0c-0.2,0.2-0.2,0.5,0,0.7
			c0.2,0.2,0.5,0.2,0.7,0c1.1-1.1,2.6-1.7,4.2-1.7c1.6,0,3.1,0.6,4.2,1.7c2.3,2.3,2.3,6.1,0,8.4c-0.2,0.2-0.2,0.5,0,0.7
			C29.7,24.2,29.8,24.3,29.9,24.3z"/>
		<path fill="#FFFFFF" d="M19.4,13.3c1.6-1.6,3.7-2.5,6-2.5c2.3,0,4.4,0.9,6,2.5c3.3,3.3,3.3,8.7,0,12c-0.2,0.2-0.2,0.5,0,0.7
			c0.1,0.1,0.2,0.1,0.3,0.1c0.1,0,0.2,0,0.3-0.1c3.7-3.7,3.7-9.7,0-13.3c-1.8-1.8-4.1-2.8-6.7-2.8c-2.5,0-4.9,1-6.7,2.8
			c-0.2,0.2-0.2,0.5,0,0.7C18.9,13.4,19.2,13.4,19.4,13.3z"/>
	</g>
</g>
</svg>
