<?xml version="1.0" encoding="utf-8"?>
<!-- Generator: Adobe Illustrator 22.0.1, SVG Export Plug-In . SVG Version: 6.00 Build 0)  -->
<svg version="1.2" baseProfile="tiny" id="Layer_1" xmlns="http://www.w3.org/2000/svg" xmlns:xlink="http://www.w3.org/1999/xlink"
	 x="0px" y="0px" viewBox="0 0 45 45" xml:space="preserve">
<g>
	
		<path fill="#001746" stroke="#001746" stroke-width="1.3469" stroke-linecap="round" stroke-linejoin="round" stroke-miterlimit="10" d="
		M7.1,5.1L5.3,8c0,0-6.8,9.3,7.7,23.8l0,0c0,0,0,0,0.1,0.1c0,0,0,0,0.1,0.1l0,0C27.7,46.5,37,39.7,37,39.7l2.9-1.8
		c1.7-1.3,1.8-3.7,0.4-5.2l-3.5-3.5c-1.2-1.2-3.1-1.3-4.5-0.3l-3.7,2.4c0,0-2.5,1.5-9.4-5.5c-6.9-7-5.5-9.4-5.5-9.4l2.4-3.7
		c1-1.4,0.9-3.3-0.3-4.5l-3.5-3.5C10.8,3.2,8.3,3.4,7.1,5.1z"/>
	<g>
		
			<path fill="none" stroke="#001746" stroke-width="1.3469" stroke-linecap="round" stroke-linejoin="round" stroke-miterlimit="10" d="
			M24.7,12.7c2.2-2.2,5.7-2.2,7.8,0c2.2,2.2,2.2,5.7,0,7.8"/>
		
			<path fill="none" stroke="#001746" stroke-width="1.3469" stroke-linecap="round" stroke-linejoin="round" stroke-miterlimit="10" d="
			M22.2,10.2c3.5-3.5,9.3-3.5,12.8,0c3.5,3.5,3.5,9.3,0,12.8"/>
		
			<path fill="none" stroke="#001746" stroke-width="1.3469" stroke-linecap="round" stroke-linejoin="round" stroke-miterlimit="10" d="
			M19.7,7.7c4.9-4.9,13-4.9,17.9,0c4.9,4.9,4.9,13,0,17.9"/>
	</g>
</g>
</svg>
